  0
SECTION
  2
HEADER
  9
$ACADVER
  1
AC1009
  9
$INSBASE
 10
0.0
 20
0.0
 30
0.0
  9
$EXTMIN
 10
-1.0
 20
-4.0
 30
-0.0015258207003583
  9
$EXTMAX
 10
14.002220769900839
 20
16.75070592543657
 30
0.0000000349246037
  9
$LIMMIN
 10
0.0
 20
0.0
  9
$LIMMAX
 10
12.0
 20
9.0
  9
$ORTHOMODE
 70
     0
  9
$REGENMODE
 70
     1
  9
$FILLMODE
 70
     1
  9
$QTEXTMODE
 70
     0
  9
$MIRRTEXT
 70
     1
  9
$DRAGMODE
 70
     2
  9
$LTSCALE
 40
1.0
  9
$OSMODE
 70
    37
  9
$ATTMODE
 70
     1
  9
$TEXTSIZE
 40
0.2
  9
$TRACEWID
 40
0.05
  9
$TEXTSTYLE
  7
STANDARD
  9
$CLAYER
  8
0
  9
$CELTYPE
  6
CONTINUOUS
  9
$CECOLOR
 62
   256
  9
$DIMSCALE
 40
1.0
  9
$DIMASZ
 40
0.18
  9
$DIMEXO
 40
0.0625
  9
$DIMDLI
 40
0.38
  9
$DIMRND
 40
0.0
  9
$DIMDLE
 40
0.0
  9
$DIMEXE
 40
0.18
  9
$DIMTP
 40
0.0
  9
$DIMTM
 40
0.0
  9
$DIMTXT
 40
0.18
  9
$DIMCEN
 40
0.09
  9
$DIMTSZ
 40
0.0
  9
$DIMTOL
 70
     0
  9
$DIMLIM
 70
     0
  9
$DIMTIH
 70
     1
  9
$DIMTOH
 70
     1
  9
$DIMSE1
 70
     0
  9
$DIMSE2
 70
     0
  9
$DIMTAD
 70
     0
  9
$DIMZIN
 70
     0
  9
$DIMBLK
  1

  9
$DIMASO
 70
     1
  9
$DIMSHO
 70
     1
  9
$DIMPOST
  1

  9
$DIMAPOST
  1

  9
$DIMALT
 70
     0
  9
$DIMALTD
 70
     2
  9
$DIMALTF
 40
25.399999999999999
  9
$DIMLFAC
 40
1.0
  9
$DIMTOFL
 70
     0
  9
$DIMTVP
 40
0.0
  9
$DIMTIX
 70
     0
  9
$DIMSOXD
 70
     0
  9
$DIMSAH
 70
     0
  9
$DIMBLK1
  1

  9
$DIMBLK2
  1

  9
$DIMSTYLE
  2
STANDARD
  9
$DIMCLRD
 70
     0
  9
$DIMCLRE
 70
     0
  9
$DIMCLRT
 70
     0
  9
$DIMTFAC
 40
1.0
  9
$DIMGAP
 40
0.09
  9
$LUNITS
 70
     2
  9
$LUPREC
 70
     4
  9
$SKETCHINC
 40
0.1
  9
$FILLETRAD
 40
0.0
  9
$AUNITS
 70
     0
  9
$AUPREC
 70
     0
  9
$MENU
  1
.
  9
$ELEVATION
 40
0.0
  9
$PELEVATION
 40
0.0
  9
$THICKNESS
 40
0.0
  9
$LIMCHECK
 70
     0
  9
$BLIPMODE
 70
     0
  9
$CHAMFERA
 40
0.0
  9
$CHAMFERB
 40
0.0
  9
$SKPOLY
 70
     0
  9
$TDCREATE
 40
2454247.5876473952
  9
$TDUPDATE
 40
2454247.629494838
  9
$TDINDWG
 40
0.0418476736
  9
$TDUSRTIMER
 40
0.0418476736
  9
$USRTIMER
 70
     1
  9
$ANGBASE
 50
0.0
  9
$ANGDIR
 70
     0
  9
$PDMODE
 70
     0
  9
$PDSIZE
 40
0.0
  9
$PLINEWID
 40
0.0
  9
$COORDS
 70
     1
  9
$SPLFRAME
 70
     0
  9
$SPLINETYPE
 70
     6
  9
$SPLINESEGS
 70
     8
  9
$ATTDIA
 70
     0
  9
$ATTREQ
 70
     1
  9
$HANDLING
 70
 10241
  9
$HANDSEED
  5
144
  9
$SURFTAB1
 70
     6
  9
$SURFTAB2
 70
     6
  9
$SURFTYPE
 70
     6
  9
$SURFU
 70
     6
  9
$SURFV
 70
     6
  9
$UCSNAME
  2

  9
$UCSORG
 10
0.0
 20
0.0
 30
0.0
  9
$UCSXDIR
 10
1.0
 20
0.0
 30
0.0
  9
$UCSYDIR
 10
0.0
 20
1.0
 30
0.0
  9
$PUCSNAME
  2

  9
$PUCSORG
 10
0.0
 20
0.0
 30
0.0
  9
$PUCSXDIR
 10
1.0
 20
0.0
 30
0.0
  9
$PUCSYDIR
 10
0.0
 20
1.0
 30
0.0
  9
$USERI1
 70
     0
  9
$USERI2
 70
     0
  9
$USERI3
 70
     0
  9
$USERI4
 70
     0
  9
$USERI5
 70
     0
  9
$USERR1
 40
0.0
  9
$USERR2
 40
0.0
  9
$USERR3
 40
0.0
  9
$USERR4
 40
0.0
  9
$USERR5
 40
0.0
  9
$WORLDVIEW
 70
     1
  9
$SHADEDGE
 70
     3
  9
$SHADEDIF
 70
    70
  9
$TILEMODE
 70
     1
  9
$MAXACTVP
 70
    64
  9
$PLIMCHECK
 70
     0
  9
$PEXTMIN
 10
1.0000000000000000E+020
 20
1.0000000000000000E+020
 30
1.0000000000000000E+020
  9
$PEXTMAX
 10
-1.0000000000000000E+020
 20
-1.0000000000000000E+020
 30
-1.0000000000000000E+020
  9
$PLIMMIN
 10
0.0
 20
0.0
  9
$PLIMMAX
 10
12.0
 20
9.0
  9
$UNITMODE
 70
     0
  9
$VISRETAIN
 70
     1
  9
$PLINEGEN
 70
     0
  9
$PSLTSCALE
 70
     1
  0
ENDSEC
  0
SECTION
  2
TABLES
  0
TABLE
  2
VPORT
 70
     4
  0
VPORT
  2
*ACTIVE
 70
     0
 10
0.0
 20
0.0
 11
1.0
 21
1.0
 12
7.0000321909764827
 22
4.8757730704874582
 13
0.0
 23
0.0
 14
1.0
 24
1.0
 15
0.0
 25
0.0
 16
0.0
 26
0.0
 36
1.0
 17
0.0
 27
0.0
 37
0.0
 40
19.989076198028599
 41
1.9539078156312619
 42
50.0
 43
0.0
 44
0.0
 50
0.0
 51
0.0
 71
     0
 72
   100
 73
     1
 74
     1
 75
     1
 76
     1
 77
     0
 78
     0
  0
ENDTAB
  0
TABLE
  2
LTYPE
 70
    12
  0
LTYPE
  2
CONTINUOUS
 70
     0
  3
Solid line
 72
    65
 73
     0
 40
0.0
  0
LTYPE
  2
LINETYPE_1
 70
     0
  3
See CAD-STD manual for LINETYPE_1
 72
    65
 73
     0
 40
0.0
  0
LTYPE
  2
LINETYPE_2
 70
     0
  3
See CAD-STD manual for LINETYPE_2
 72
    65
 73
     0
 40
0.0
  0
LTYPE
  2
LINETYPE_3
 70
     0
  3
See CAD-STD manual for LINETYPE_3
 72
    65
 73
     2
 40
0.1562
 49
0.125
 49
-0.0312
  0
LTYPE
  2
LINETYPE_4
 70
     0
  3
See CAD-STD manual for LINETYPE_4
 72
    65
 73
     4
 40
1.0
 49
0.75
 49
-0.0625
 49
0.125
 49
-0.0625
  0
LTYPE
  2
LINETYPE_5
 70
     0
  3
See CAD-STD manual for LINETYPE_5
 72
    65
 73
     2
 40
0.3125
 49
0.25
 49
-0.0625
  0
LTYPE
  2
LINETYPE_6
 70
     0
  3
See CAD-STD manual for LINETYPE_6
 72
    65
 73
     6
 40
1.1875
 49
0.75
 49
-0.0625
 49
0.125
 49
-0.0625
 49
0.125
 49
-0.0625
  0
LTYPE
  2
LINETYPE_7
 70
     0
  3
See CAD-STD manual for LINETYPE_7
 72
    65
 73
     6
 40
1.1875
 49
0.75
 49
-0.0625
 49
0.125
 49
-0.0625
 49
0.125
 49
-0.0625
  0
LTYPE
  2
LINETYPE_8
 70
     0
  3
See CAD-STD manual for LINETYPE_8
 72
    65
 73
     2
 40
0.125
 49
0.0625
 49
-0.0625
  0
LTYPE
  2
LINETYPE_9
 70
     0
  3
See CAD-STD manual for LINETYPE_9
 72
    65
 73
     2
 40
0.0625
 49
0.0001
 49
-0.0624
  0
LTYPE
  2
LINETYPE_10
 70
     0
  3
See CAD-STD manual for LINETYPE_10
 72
    65
 73
     4
 40
0.5625
 49
0.375
 49
-0.0625
 49
0.0625
 49
-0.0625
  0
LTYPE
  2
LINETYPE_11
 70
     0
  3
See CAD-STD manual for LINETYPE_11
 72
    65
 73
     0
 40
0.0
  0
ENDTAB
  0
TABLE
  2
LAYER
 70
     1
  0
LAYER
  2
0
 70
     0
 62
     7
  6
CONTINUOUS
  0
ENDTAB
  0
TABLE
  2
STYLE
 70
     1
  0
STYLE
  2
STANDARD
 70
     0
 40
0.0
 41
1.0
 50
0.0
 71
     0
 42
0.2
  3
txt
  4

  0
ENDTAB
  0
TABLE
  2
VIEW
 70
     0
  0
ENDTAB
  0
TABLE
  2
UCS
 70
     0
  0
ENDTAB
  0
TABLE
  2
APPID
 70
     1
  0
APPID
  2
ACAD
 70
     0
  0
ENDTAB
  0
TABLE
  2
DIMSTYLE
 70
     1
  0
DIMSTYLE
  2
STANDARD
 70
     0
  3

  4

  5

  6

  7

 40
1.0
 41
0.18
 42
0.0625
 43
0.38
 44
0.18
 45
0.0
 46
0.0
 47
0.0
 48
0.0
140
0.18
141
0.09
142
0.0
143
25.399999999999999
144
1.0
145
0.0
146
1.0
147
0.09
 71
     0
 72
     0
 73
     1
 74
     1
 75
     0
 76
     0
 77
     0
 78
     0
170
     0
171
     2
172
     0
173
     0
174
     0
175
     0
176
     0
177
     0
178
     0
  0
ENDTAB
  0
ENDSEC
  0
SECTION
  2
BLOCKS
  0
BLOCK
  8
0
  2
$MODEL_SPACE
 70
     0
 10
0.0
 20
0.0
 30
0.0
  3
$MODEL_SPACE
  1

  0
ENDBLK
  5
20
  8
0
  0
BLOCK
 67
     1
  8
0
  2
$PAPER_SPACE
 70
     0
 10
0.0
 20
0.0
 30
0.0
  3
$PAPER_SPACE
  1

  0
ENDBLK
  5
1C
 67
     1
  8
0
  0
ENDSEC
  0
SECTION
  2
ENTITIES
  0
POLYLINE
  5
CB
  8
0
  6
LINETYPE_11
 66
     1
 10
0.0
 20
0.0
 30
0.0
 40
0.009
 41
0.009
  0
VERTEX
  5
138
  8
0
  6
LINETYPE_11
 10
0.0
 20
16.75
 30
0.0
  0
VERTEX
  5
139
  8
0
  6
LINETYPE_11
 10
0.0
 20
16.75
 30
0.0
  0
SEQEND
  5
13A
  8
0
  6
LINETYPE_11
  0
POLYLINE
  5
CF
  8
0
  6
LINETYPE_11
 66
     1
 10
0.0
 20
0.0
 30
0.0
 40
0.009
 41
0.009
  0
VERTEX
  5
13B
  8
0
  6
LINETYPE_11
 10
0.0
 20
16.75
 30
0.0
  0
VERTEX
  5
13C
  8
0
  6
LINETYPE_11
 10
0.0
 20
16.75
 30
0.0
  0
SEQEND
  5
13D
  8
0
  6
LINETYPE_11
  0
POLYLINE
  5
D3
  8
0
  6
LINETYPE_11
 66
     1
 10
0.0
 20
0.0
 30
0.0
 40
0.009
 41
0.009
  0
VERTEX
  5
13E
  8
0
  6
LINETYPE_11
 10
0.0
 20
16.75
 30
0.0
  0
VERTEX
  5
13F
  8
0
  6
LINETYPE_11
 10
0.0
 20
16.75
 30
0.0
  0
SEQEND
  5
140
  8
0
  6
LINETYPE_11
  0
POLYLINE
  5
D7
  8
0
  6
LINETYPE_11
 66
     1
 10
0.0
 20
0.0
 30
0.0
 40
0.009
 41
0.009
  0
VERTEX
  5
141
  8
0
  6
LINETYPE_11
 10
0.0
 20
16.75
 30
0.0
  0
VERTEX
  5
142
  8
0
  6
LINETYPE_11
 10
0.0
 20
16.75
 30
0.0
  0
SEQEND
  5
143
  8
0
  6
LINETYPE_11
  0
LINE
  5
E9
  8
0
  6
CONTINUOUS
 10
-1.0
 20
-1.0
 30
0.0
 11
-1.0
 21
4.0
 31
0.0
  0
LINE
  5
EA
  8
0
  6
CONTINUOUS
 10
-1.0
 20
4.0
 30
0.0
 11
1.0
 21
6.0
 31
0.0
  0
LINE
  5
EB
  8
0
  6
CONTINUOUS
 10
1.0
 20
6.0
 30
0.0
 11
1.0
 21
10.0
 31
0.0
  0
LINE
  5
ED
  8
0
  6
CONTINUOUS
 10
1.0
 20
-1.0
 30
0.0
 11
1.0
 21
3.0
 31
0.0
  0
LINE
  5
EE
  8
0
  6
CONTINUOUS
 10
1.0
 20
3.0
 30
0.0
 11
3.0
 21
5.0
 31
0.0
  0
LINE
  5
EF
  8
0
  6
CONTINUOUS
 10
3.0
 20
5.0
 30
0.0
 11
3.0
 21
8.0
 31
0.0
  0
LINE
  5
F0
  8
0
  6
CONTINUOUS
 10
4.0
 20
9.0
 30
0.0
 11
8.0
 21
9.0
 31
0.0
  0
LINE
  5
F7
  8
0
  6
CONTINUOUS
 10
5.0
 20
7.0
 30
0.0
 11
4.0
 21
5.0
 31
0.0
  0
LINE
  5
F8
  8
0
  6
CONTINUOUS
 10
4.0
 20
5.0
 30
0.0
 11
5.0
 21
3.0
 31
0.0
  0
LINE
  5
F9
  8
0
  6
CONTINUOUS
 10
5.0
 20
3.0
 30
0.0
 11
9.0
 21
3.0
 31
0.0
  0
LINE
  5
FA
  8
0
  6
CONTINUOUS
 10
9.0
 20
3.0
 30
0.0
 11
10.0
 21
1.0
 31
0.0
  0
LINE
  5
FB
  8
0
  6
CONTINUOUS
 10
10.0
 20
1.0
 30
0.0
 11
9.0
 21
-1.0
 31
0.0
  0
LINE
  5
FC
  8
0
  6
CONTINUOUS
 10
9.0
 20
-1.0
 30
0.0
 11
2.0
 21
-2.0
 31
0.0
  0
LINE
  5
FD
  8
0
  6
CONTINUOUS
 10
2.0
 20
-2.0
 30
0.0
 11
1.0
 21
-1.0
 31
0.0
  0
LINE
  5
FE
  8
0
  6
CONTINUOUS
 10
8.0
 20
9.0
 30
0.0
 11
9.0
 21
8.0
 31
0.0
  0
LINE
  5
FF
  8
0
  6
CONTINUOUS
 10
9.0
 20
8.0
 30
0.0
 11
8.0
 21
7.0
 31
0.0
  0
LINE
  5
100
  8
0
  6
CONTINUOUS
 10
5.0
 20
7.0
 30
0.0
 11
8.0
 21
7.0
 31
0.0
  0
LINE
  5
101
  8
0
  6
CONTINUOUS
 10
5.0
 20
5.0
 30
0.0
 11
6.0
 21
4.0
 31
0.0
  0
LINE
  5
102
  8
0
  6
CONTINUOUS
 10
6.0
 20
4.0
 30
0.0
 11
10.0
 21
4.0
 31
0.0
  0
LINE
  5
103
  8
0
  6
CONTINUOUS
 10
10.0
 20
4.0
 30
0.0
 11
11.0
 21
1.0
 31
0.0
  0
LINE
  5
104
  8
0
  6
CONTINUOUS
 10
11.0
 20
1.0
 30
0.0
 11
11.0
 21
-3.0
 31
0.0
  0
LINE
  5
105
  8
0
  6
CONTINUOUS
 10
10.0
 20
-4.0
 30
0.0
 11
0.0
 21
-4.0
 31
0.0
  0
LINE
  5
106
  8
0
  6
CONTINUOUS
 10
0.0
 20
-4.0
 30
0.0
 11
-1.0
 21
-3.0
 31
0.0
  0
LINE
  5
107
  8
0
  6
CONTINUOUS
 10
-1.0
 20
-3.0
 30
0.0
 11
-1.0
 21
-1.0
 31
0.0
  0
LINE
  5
108
  8
0
  6
CONTINUOUS
 10
5.0
 20
5.0
 30
0.0
 11
6.0
 21
6.0
 31
0.0
  0
LINE
  5
109
  8
0
  6
CONTINUOUS
 10
6.0
 20
6.0
 30
0.0
 11
12.0
 21
6.0
 31
0.0
  0
LINE
  5
10A
  8
0
  6
CONTINUOUS
 10
12.0
 20
6.0
 30
0.0
 11
13.0
 21
7.0
 31
0.0
  0
LINE
  5
10B
  8
0
  6
CONTINUOUS
 10
13.0
 20
7.0
 30
0.0
 11
13.0
 21
10.0
 31
0.0
  0
LINE
  5
10C
  8
0
  6
CONTINUOUS
 10
13.0
 20
10.0
 30
0.0
 11
12.0
 21
11.0
 31
0.0
  0
LINE
  5
10D
  8
0
  6
CONTINUOUS
 10
12.0
 20
11.0
 30
0.0
 11
2.0
 21
11.0
 31
0.0
  0
LINE
  5
10E
  8
0
  6
CONTINUOUS
 10
1.0
 20
10.0
 30
0.0
 11
2.0
 21
11.0
 31
0.0
  0
LINE
  5
10F
  8
0
  6
CONTINUOUS
 10
10.0
 20
-4.0
 30
0.0
 11
11.0
 21
-3.0
 31
0.0
  0
LINE
  5
110
  8
0
  6
CONTINUOUS
 10
3.0
 20
8.0
 30
0.0
 11
4.0
 21
9.0
 31
0.0
  0
ENDSEC
  0
EOF
