  0
SECTION
  2
HEADER
  9
$ACADVER
  1
AC1009
  0
ENDSEC
  0
SECTION
  2
TABLES
  0
TABLE
  2
LTYPE
 70
     3
  0
LTYPE
  2
LINETYPE_1
 70
    64
  3
See CAD-STD manual for LINETYPE_1
 72
    65
 73
     0
 40
0.000000
  0
LTYPE
  2
LINETYPE_2
 70
    64
  3
See CAD-STD manual for LINETYPE_2
 72
    65
 73
     0
 40
0.000000
  0
LTYPE
  2
LINETYPE_3
 70
    64
  3
See CAD-STD manual for LINETYPE_3
 72
    65
 73
     2
 40
0.156200
 49
0.125000
 49
-0.031200
  0
LTYPE
  2
LINETYPE_4
 70
    64
  3
See CAD-STD manual for LINETYPE_4
 72
    65
 73
     4
 40
1.000000
 49
0.750000
 49
-0.062500
 49
0.125000
 49
-0.062500
  0
LTYPE
  2
LINETYPE_5
 70
    64
  3
See CAD-STD manual for LINETYPE_5
 72
    65
 73
     2
 40
0.312500
 49
0.250000
 49
-0.062500
  0
LTYPE
  2
LINETYPE_6
 70
    64
  3
See CAD-STD manual for LINETYPE_6
 72
    65
 73
     6
 40
1.187500
 49
0.750000
 49
-0.062500
 49
0.125000
 49
-0.062500
 49
0.125000
 49
-0.062500
  0
LTYPE
  2
LINETYPE_7
 70
    64
  3
See CAD-STD manual for LINETYPE_7
 72
    65
 73
     6
 40
1.187500
 49
0.750000
 49
-0.062500
 49
0.125000
 49
-0.062500
 49
0.125000
 49
-0.062500
  0
LTYPE
  2
LINETYPE_8
 70
    64
  3
See CAD-STD manual for LINETYPE_8
 72
    65
 73
     2
 40
0.125000
 49
0.062500
 49
-0.062500
  0
LTYPE
  2
LINETYPE_9
 70
    64
  3
See CAD-STD manual for LINETYPE_9
 72
    65
 73
     2
 40
0.062500
 49
0.000100
 49
-0.062400
  0
LTYPE
  2
LINETYPE_10
 70
    64
  3
See CAD-STD manual for LINETYPE_10
 72
    65
 73
     4
 40
0.562500
 49
0.375000
 49
-0.062500
 49
0.062500
 49
-0.062500
  0
LTYPE
  2
LINETYPE_11
 70
    64
  3
See CAD-STD manual for LINETYPE_11
 72
    65
 73
     0
 40
0.000000
  0
ENDTAB
  0
ENDSEC
  0
SECTION
  2
ENTITIES
  0
POLYLINE
  8
0
  6
LINETYPE_2
 66
     1
 10
0.0
 20
0.0
 30
0.0
  0
VERTEX
  8
0
 10
2.200000
 20
0.000000
 30
0.0
  0
VERTEX
  8
0
 10
3.650000
 20
0.000000
 30
0.0
  0
SEQEND
  0
POLYLINE
  8
0
  6
LINETYPE_2
 66
     1
 10
0.0
 20
0.0
 30
0.0
  0
VERTEX
  8
0
 10
4.590000
 20
0.000000
 30
0.0
  0
VERTEX
  8
0
 10
8.410000
 20
0.000000
 30
0.0
  0
SEQEND
  0
POLYLINE
  8
0
  6
LINETYPE_2
 66
     1
 10
0.0
 20
0.0
 30
0.0
  0
VERTEX
  8
0
 10
9.350000
 20
0.000000
 30
0.0
  0
VERTEX
  8
0
 10
11.930000
 20
0.000000
 30
0.0
  0
SEQEND
  0
POLYLINE
  8
0
  6
LINETYPE_2
 66
     1
 10
0.0
 20
0.0
 30
0.0
  0
VERTEX
  8
0
 10
12.860000
 20
0.000000
 30
0.0
  0
VERTEX
  8
0
 10
15.660000
 20
0.000000
 30
0.0
  0
SEQEND
  0
POLYLINE
  8
0
  6
LINETYPE_2
 66
     1
 10
0.0
 20
0.0
 30
0.0
  0
VERTEX
  8
0
 10
16.590000
 20
0.000000
 30
0.0
  0
VERTEX
  8
0
 10
18.040000
 20
0.000000
 30
0.0
  0
SEQEND
  0
POLYLINE
  8
0
  6
LINETYPE_2
 66
     1
 10
0.0
 20
0.0
 30
0.0
  0
VERTEX
  8
0
 10
18.970000
 20
0.000000
 30
0.0
  0
VERTEX
  8
0
 10
22.850000
 20
0.000000
 30
0.0
  0
SEQEND
  0
POLYLINE
  8
0
  6
LINETYPE_2
 66
     1
 10
0.0
 20
0.0
 30
0.0
  0
VERTEX
  8
0
 10
23.780000
 20
0.000000
 30
0.0
  0
VERTEX
  8
0
 10
27.590000
 20
0.000000
 30
0.0
  0
SEQEND
  0
POLYLINE
  8
0
  6
LINETYPE_2
 66
     1
 10
0.0
 20
0.0
 30
0.0
  0
VERTEX
  8
0
 10
28.525000
 20
0.000000
 30
0.0
  0
VERTEX
  8
0
 10
30.005000
 20
0.000000
 30
0.0
  0
SEQEND
  0
POLYLINE
  8
0
  6
LINETYPE_2
 66
     1
 10
0.0
 20
0.0
 30
0.0
  0
VERTEX
  8
0
 10
30.950000
 20
0.000000
 30
0.0
  0
VERTEX
  8
0
 10
37.120000
 20
0.000000
 30
0.0
  0
SEQEND
  0
POLYLINE
  8
0
  6
LINETYPE_2
 66
     1
 10
0.0
 20
0.0
 30
0.0
  0
VERTEX
  8
0
 10
2.260000
 20
2.300000
 30
0.0
  0
VERTEX
  8
0
 10
17.360000
 20
2.300000
 30
0.0
  0
SEQEND
  0
POLYLINE
  8
0
  6
LINETYPE_2
 66
     1
 10
0.0
 20
0.0
 30
0.0
  0
VERTEX
  8
0
 10
18.540000
 20
2.300000
 30
0.0
  0
VERTEX
  8
0
 10
27.070000
 20
2.300000
 30
0.0
  0
SEQEND
  0
POLYLINE
  8
0
  6
LINETYPE_2
 66
     1
 10
0.0
 20
0.0
 30
0.0
  0
VERTEX
  8
0
 10
30.210000
 20
2.300000
 30
0.0
  0
VERTEX
  8
0
 10
43.485000
 20
2.300000
 30
0.0
  0
SEQEND
  0
POLYLINE
  8
0
  6
LINETYPE_2
 66
     1
 10
0.0
 20
0.0
 30
0.0
  0
VERTEX
  8
0
 10
17.360000
 20
5.070000
 30
0.0
  0
VERTEX
  8
0
 10
18.540000
 20
5.070000
 30
0.0
  0
SEQEND
  0
POLYLINE
  8
0
  6
LINETYPE_2
 66
     1
 10
0.0
 20
0.0
 30
0.0
  0
VERTEX
  8
0
 10
2.260000
 20
2.300000
 30
0.0
  0
VERTEX
  8
0
 10
2.260000
 20
4.270000
 30
0.0
  0
SEQEND
  0
POLYLINE
  8
0
  6
LINETYPE_2
 66
     1
 10
0.0
 20
0.0
 30
0.0
  0
VERTEX
  8
0
 10
17.360000
 20
2.300000
 30
0.0
  0
VERTEX
  8
0
 10
17.360000
 20
5.070000
 30
0.0
  0
SEQEND
  0
POLYLINE
  8
0
  6
LINETYPE_2
 66
     1
 10
0.0
 20
0.0
 30
0.0
  0
VERTEX
  8
0
 10
18.540000
 20
2.300000
 30
0.0
  0
VERTEX
  8
0
 10
18.540000
 20
5.070000
 30
0.0
  0
SEQEND
  0
POLYLINE
  8
0
  6
LINETYPE_2
 66
     1
 10
0.0
 20
0.0
 30
0.0
  0
VERTEX
  8
0
 10
27.070000
 20
2.300000
 30
0.0
  0
VERTEX
  8
0
 10
27.070000
 20
10.745000
 30
0.0
  0
SEQEND
  0
POLYLINE
  8
0
  6
LINETYPE_2
 66
     1
 10
0.0
 20
0.0
 30
0.0
  0
VERTEX
  8
0
 10
30.210000
 20
2.300000
 30
0.0
  0
VERTEX
  8
0
 10
30.210000
 20
10.745000
 30
0.0
  0
SEQEND
  0
POLYLINE
  8
0
  6
LINETYPE_2
 66
     1
 10
0.0
 20
0.0
 30
0.0
  0
VERTEX
  8
0
 10
37.120000
 20
1.030000
 30
0.0
  0
VERTEX
  8
0
 10
37.120000
 20
2.300000
 30
0.0
  0
SEQEND
  0
POLYLINE
  8
0
  6
LINETYPE_2
 66
     1
 10
0.0
 20
0.0
 30
0.0
  0
VERTEX
  8
0
 10
-6.490000
 20
-6.380000
 30
0.0
  0
VERTEX
  8
0
 10
43.485000
 20
-6.380000
 30
0.0
  0
SEQEND
  0
POLYLINE
  8
0
  6
LINETYPE_2
 66
     1
 10
0.0
 20
0.0
 30
0.0
  0
VERTEX
  8
0
 10
-6.490000
 20
-6.380000
 30
0.0
  0
VERTEX
  8
0
 10
-6.490000
 20
10.620000
 30
0.0
  0
SEQEND
  0
POLYLINE
  8
0
  6
LINETYPE_2
 66
     1
 10
0.0
 20
0.0
 30
0.0
  0
VERTEX
  8
0
 10
0.000000
 20
2.140000
 30
0.0
  0
VERTEX
  8
0
 10
-6.490000
 20
2.140000
 30
0.0
  0
SEQEND
  0
POLYLINE
  8
0
  6
LINETYPE_2
 66
     1
 10
0.0
 20
0.0
 30
0.0
  0
VERTEX
  8
0
 10
0.000000
 20
10.620000
 30
0.0
  0
VERTEX
  8
0
 10
-6.490000
 20
10.620000
 30
0.0
  0
SEQEND
  0
POLYLINE
  8
0
  6
LINETYPE_2
 66
     1
 10
0.0
 20
0.0
 30
0.0
  0
VERTEX
  8
0
 10
2.260000
 20
5.200000
 30
0.0
  0
VERTEX
  8
0
 10
4.550000
 20
5.200000
 30
0.0
  0
SEQEND
  0
POLYLINE
  8
0
  6
LINETYPE_2
 66
     1
 10
0.0
 20
0.0
 30
0.0
  0
VERTEX
  8
0
 10
4.550000
 20
5.200000
 30
0.0
  0
VERTEX
  8
0
 10
4.550000
 20
2.300000
 30
0.0
  0
SEQEND
  0
POLYLINE
  8
0
  6
LINETYPE_2
 66
     1
 10
0.0
 20
0.0
 30
0.0
  0
VERTEX
  8
0
 10
2.300000
 20
0.000000
 30
0.0
  0
VERTEX
  8
0
 10
2.300000
 20
-6.380000
 30
0.0
  0
SEQEND
  0
POLYLINE
  8
0
  6
LINETYPE_2
 66
     1
 10
0.0
 20
0.0
 30
0.0
  0
VERTEX
  8
0
 10
5.890000
 20
0.000000
 30
0.0
  0
VERTEX
  8
0
 10
5.890000
 20
-6.380000
 30
0.0
  0
SEQEND
  0
POLYLINE
  8
0
  6
LINETYPE_2
 66
     1
 10
0.0
 20
0.0
 30
0.0
  0
VERTEX
  8
0
 10
9.350000
 20
0.000000
 30
0.0
  0
VERTEX
  8
0
 10
9.350000
 20
-6.380000
 30
0.0
  0
SEQEND
  0
POLYLINE
  8
0
  6
LINETYPE_2
 66
     1
 10
0.0
 20
0.0
 30
0.0
  0
VERTEX
  8
0
 10
14.250000
 20
0.000000
 30
0.0
  0
VERTEX
  8
0
 10
14.250000
 20
-6.380000
 30
0.0
  0
SEQEND
  0
POLYLINE
  8
0
  6
LINETYPE_2
 66
     1
 10
0.0
 20
0.0
 30
0.0
  0
VERTEX
  8
0
 10
18.040000
 20
0.000000
 30
0.0
  0
VERTEX
  8
0
 10
18.040000
 20
-6.380000
 30
0.0
  0
SEQEND
  0
POLYLINE
  8
0
  6
LINETYPE_2
 66
     1
 10
0.0
 20
0.0
 30
0.0
  0
VERTEX
  8
0
 10
21.365000
 20
0.000000
 30
0.0
  0
VERTEX
  8
0
 10
21.365000
 20
-6.380000
 30
0.0
  0
SEQEND
  0
POLYLINE
  8
0
  6
LINETYPE_2
 66
     1
 10
0.0
 20
0.0
 30
0.0
  0
VERTEX
  8
0
 10
24.990000
 20
0.000000
 30
0.0
  0
VERTEX
  8
0
 10
24.990000
 20
-6.380000
 30
0.0
  0
SEQEND
  0
POLYLINE
  8
0
  6
LINETYPE_2
 66
     1
 10
0.0
 20
0.0
 30
0.0
  0
VERTEX
  8
0
 10
32.160000
 20
0.000000
 30
0.0
  0
VERTEX
  8
0
 10
32.160000
 20
-6.380000
 30
0.0
  0
SEQEND
  0
POLYLINE
  8
0
  6
LINETYPE_2
 66
     1
 10
0.0
 20
0.0
 30
0.0
  0
VERTEX
  8
0
 10
37.120000
 20
0.090000
 30
0.0
  0
VERTEX
  8
0
 10
37.120000
 20
-6.380000
 30
0.0
  0
SEQEND
  0
POLYLINE
  8
0
  6
LINETYPE_2
 66
     1
 10
0.0
 20
0.0
 30
0.0
  0
VERTEX
  8
0
 10
43.485000
 20
-6.380000
 30
0.0
  0
VERTEX
  8
0
 10
43.485000
 20
2.300000
 30
0.0
  0
SEQEND
  0
POLYLINE
  8
0
  6
LINETYPE_11
 40
0.009000
 41
0.009000
 66
     1
 70
     1
 10
0.0
 20
0.0
 30
0.0
  0
VERTEX
  8
0
 10
0.000000
 20
16.750000
 30
0.0
  0
SEQEND
  0
POLYLINE
  8
0
  6
LINETYPE_11
 40
0.009000
 41
0.009000
 66
     1
 70
     1
 10
0.0
 20
0.0
 30
0.0
  0
VERTEX
  8
0
 10
0.000000
 20
16.750000
 30
0.0
  0
SEQEND
  0
POLYLINE
  8
0
  6
LINETYPE_11
 40
0.009000
 41
0.009000
 66
     1
 70
     1
 10
0.0
 20
0.0
 30
0.0
  0
VERTEX
  8
0
 10
0.000000
 20
16.750000
 30
0.0
  0
SEQEND
  0
POLYLINE
  8
0
  6
LINETYPE_11
 40
0.009000
 41
0.009000
 66
     1
 70
     1
 10
0.0
 20
0.0
 30
0.0
  0
VERTEX
  8
0
 10
0.000000
 20
16.750000
 30
0.0
  0
SEQEND
  0
POLYLINE
  8
0
  6
LINETYPE_2
 66
     1
 10
0.0
 20
0.0
 30
0.0
  0
VERTEX
  8
0
 10
28.905000
 20
0.000000
 30
0.0
  0
VERTEX
  8
0
 10
28.905000
 20
-6.380000
 30
0.0
  0
SEQEND
  0
POLYLINE
  8
0
  6
LINETYPE_2
 66
     1
 10
0.0
 20
0.0
 30
0.0
  0
VERTEX
  8
0
 10
27.069500
 20
10.746100
 30
0.0
  0
VERTEX
  8
0
 10
30.209300
 20
10.746100
 30
0.0
  0
SEQEND
  0
POLYLINE
  8
0
  6
LINETYPE_2
 66
     1
 10
0.0
 20
0.0
 30
0.0
  0
VERTEX
  8
0
 10
-0.001800
 20
10.621200
 30
0.0
  0
VERTEX
  8
0
 10
2.255700
 20
10.621200
 30
0.0
  0
SEQEND
  0
POLYLINE
  8
0
  6
LINETYPE_2
 66
     1
 70
     1
 10
0.0
 20
0.0
 30
0.0
  0
VERTEX
  8
0
 10
2.255700
 20
10.621200
 30
0.0
  0
SEQEND
  0
POLYLINE
  8
0
  6
LINETYPE_1
 66
     1
 10
0.0
 20
0.0
 30
0.0
  0
VERTEX
  8
0
 10
0.000000
 20
4.815600
 30
0.0
  0
VERTEX
  8
0
 10
0.000000
 20
10.615600
 30
0.0
  0
SEQEND
  0
POLYLINE
  8
0
  6
LINETYPE_2
 66
     1
 10
0.0
 20
0.0
 30
0.0
  0
VERTEX
  8
0
 10
2.258500
 20
5.201700
 30
0.0
  0
VERTEX
  8
0
 10
2.258200
 20
10.622400
 30
0.0
  0
SEQEND
  0
POLYLINE
  8
0
  6
LINETYPE_2
 66
     1
 10
0.0
 20
0.0
 30
0.0
  0
VERTEX
  8
0
 10
-0.000500
 20
2.144600
 30
0.0
  0
VERTEX
  8
0
 10
-0.000900
 20
3.658300
 30
0.0
  0
SEQEND
  0
ENDSEC
  0
EOF
